# Blender v2.92.0 OBJ File: 'updated.blend'
# www.blender.org
mtllib poles.mtl
o Cylinder.003
v 0.270000 1.000000 -0.013994
v 0.270207 0.000000 -0.013994
v 0.272730 1.000000 -0.013725
v 0.272937 0.000000 -0.013725
v 0.275355 1.000000 -0.012929
v 0.275562 0.000000 -0.012929
v 0.277775 1.000000 -0.011636
v 0.277981 0.000000 -0.011636
v 0.279895 1.000000 -0.009895
v 0.280102 0.000000 -0.009895
v 0.281635 1.000000 -0.007775
v 0.281842 0.000000 -0.007775
v 0.282929 1.000000 -0.005355
v 0.283135 0.000000 -0.005355
v 0.283725 1.000000 -0.002730
v 0.283932 0.000000 -0.002730
v 0.283994 1.000000 -0.000000
v 0.284201 0.000000 -0.000000
v 0.283725 1.000000 0.002730
v 0.283932 0.000000 0.002730
v 0.282929 1.000000 0.005355
v 0.283135 0.000000 0.005355
v 0.281635 1.000000 0.007775
v 0.281842 0.000000 0.007775
v 0.279895 1.000000 0.009895
v 0.280102 0.000000 0.009895
v 0.277775 1.000000 0.011635
v 0.277981 0.000000 0.011635
v 0.275355 1.000000 0.012929
v 0.275562 0.000000 0.012929
v 0.272730 1.000000 0.013725
v 0.272937 0.000000 0.013725
v 0.270000 1.000000 0.013994
v 0.270207 0.000000 0.013994
v 0.267270 1.000000 0.013725
v 0.267477 0.000000 0.013725
v 0.264645 1.000000 0.012929
v 0.264851 0.000000 0.012929
v 0.262225 1.000000 0.011635
v 0.262432 0.000000 0.011635
v 0.260105 1.000000 0.009895
v 0.260311 0.000000 0.009895
v 0.258365 1.000000 0.007775
v 0.258571 0.000000 0.007775
v 0.257071 1.000000 0.005355
v 0.257278 0.000000 0.005355
v 0.256275 1.000000 0.002730
v 0.256482 0.000000 0.002730
v 0.256006 1.000000 -0.000000
v 0.256213 0.000000 -0.000000
v 0.256275 1.000000 -0.002730
v 0.256482 0.000000 -0.002730
v 0.257071 1.000000 -0.005355
v 0.257278 0.000000 -0.005355
v 0.258365 1.000000 -0.007775
v 0.258571 0.000000 -0.007775
v 0.260105 1.000000 -0.009895
v 0.260312 0.000000 -0.009895
v 0.262225 1.000000 -0.011636
v 0.262432 0.000000 -0.011636
v 0.264645 1.000000 -0.012929
v 0.264851 0.000000 -0.012929
v 0.267270 1.000000 -0.013725
v 0.267477 0.000000 -0.013725
v -0.270000 1.000000 -0.013994
v -0.270207 0.000000 -0.013994
v -0.272730 1.000000 -0.013725
v -0.272937 0.000000 -0.013725
v -0.275355 1.000000 -0.012929
v -0.275562 0.000000 -0.012929
v -0.277775 1.000000 -0.011636
v -0.277981 0.000000 -0.011636
v -0.279895 1.000000 -0.009895
v -0.280102 0.000000 -0.009895
v -0.281635 1.000000 -0.007775
v -0.281842 0.000000 -0.007775
v -0.282929 1.000000 -0.005355
v -0.283135 0.000000 -0.005355
v -0.283725 1.000000 -0.002730
v -0.283932 0.000000 -0.002730
v -0.283994 1.000000 -0.000000
v -0.284201 0.000000 -0.000000
v -0.283725 1.000000 0.002730
v -0.283932 0.000000 0.002730
v -0.282929 1.000000 0.005355
v -0.283135 0.000000 0.005355
v -0.281635 1.000000 0.007775
v -0.281842 0.000000 0.007775
v -0.279895 1.000000 0.009895
v -0.280102 0.000000 0.009895
v -0.277775 1.000000 0.011635
v -0.277981 0.000000 0.011635
v -0.275355 1.000000 0.012929
v -0.275562 0.000000 0.012929
v -0.272730 1.000000 0.013725
v -0.272937 0.000000 0.013725
v -0.270000 1.000000 0.013994
v -0.270207 0.000000 0.013994
v -0.267270 1.000000 0.013725
v -0.267477 0.000000 0.013725
v -0.264645 1.000000 0.012929
v -0.264851 0.000000 0.012929
v -0.262225 1.000000 0.011635
v -0.262432 0.000000 0.011635
v -0.260105 1.000000 0.009895
v -0.260311 0.000000 0.009895
v -0.258365 1.000000 0.007775
v -0.258571 0.000000 0.007775
v -0.257071 1.000000 0.005355
v -0.257278 0.000000 0.005355
v -0.256275 1.000000 0.002730
v -0.256482 0.000000 0.002730
v -0.256006 1.000000 -0.000000
v -0.256213 0.000000 -0.000000
v -0.256275 1.000000 -0.002730
v -0.256482 0.000000 -0.002730
v -0.257071 1.000000 -0.005355
v -0.257278 0.000000 -0.005355
v -0.258365 1.000000 -0.007775
v -0.258571 0.000000 -0.007775
v -0.260105 1.000000 -0.009895
v -0.260312 0.000000 -0.009895
v -0.262225 1.000000 -0.011636
v -0.262432 0.000000 -0.011636
v -0.264645 1.000000 -0.012929
v -0.264851 0.000000 -0.012929
v -0.267270 1.000000 -0.013725
v -0.267477 0.000000 -0.013725
vt 1.000000 0.500000
vt 0.968750 0.500000
vt 0.968750 1.000000
vt 1.000000 1.000000
vt 0.937500 0.500000
vt 0.937500 1.000000
vt 0.906250 0.500000
vt 0.906250 1.000000
vt 0.875000 0.500000
vt 0.875000 1.000000
vt 0.843750 0.500000
vt 0.843750 1.000000
vt 0.812500 0.500000
vt 0.812500 1.000000
vt 0.781250 0.500000
vt 0.781250 1.000000
vt 0.750000 0.500000
vt 0.750000 1.000000
vt 0.718750 0.500000
vt 0.718750 1.000000
vt 0.687500 0.500000
vt 0.687500 1.000000
vt 0.656250 0.500000
vt 0.656250 1.000000
vt 0.625000 0.500000
vt 0.625000 1.000000
vt 0.593750 0.500000
vt 0.593750 1.000000
vt 0.562500 0.500000
vt 0.562500 1.000000
vt 0.531250 0.500000
vt 0.531250 1.000000
vt 0.500000 0.500000
vt 0.500000 1.000000
vt 0.468750 0.500000
vt 0.468750 1.000000
vt 0.437500 0.500000
vt 0.437500 1.000000
vt 0.406250 0.500000
vt 0.406250 1.000000
vt 0.375000 0.500000
vt 0.375000 1.000000
vt 0.343750 0.500000
vt 0.343750 1.000000
vt 0.312500 0.500000
vt 0.312500 1.000000
vt 0.281250 0.500000
vt 0.281250 1.000000
vt 0.250000 0.500000
vt 0.250000 1.000000
vt 0.218750 0.500000
vt 0.218750 1.000000
vt 0.187500 0.500000
vt 0.187500 1.000000
vt 0.156250 0.500000
vt 0.156250 1.000000
vt 0.125000 0.500000
vt 0.125000 1.000000
vt 0.093750 0.500000
vt 0.093750 1.000000
vt 0.062500 0.500000
vt 0.062500 1.000000
vt 0.296822 0.485388
vt 0.341844 0.471731
vt 0.383337 0.449553
vt 0.419706 0.419706
vt 0.449553 0.383337
vt 0.471731 0.341844
vt 0.485388 0.296822
vt 0.490000 0.250000
vt 0.485388 0.203178
vt 0.471731 0.158156
vt 0.449553 0.116663
vt 0.419706 0.080294
vt 0.383337 0.050447
vt 0.341844 0.028269
vt 0.296822 0.014612
vt 0.250000 0.010000
vt 0.203178 0.014612
vt 0.158156 0.028269
vt 0.116663 0.050447
vt 0.080294 0.080294
vt 0.050447 0.116663
vt 0.028269 0.158156
vt 0.014611 0.203179
vt 0.010000 0.250000
vt 0.014612 0.296822
vt 0.028269 0.341844
vt 0.050447 0.383337
vt 0.080295 0.419706
vt 0.116663 0.449553
vt 0.158156 0.471731
vt 0.203179 0.485389
vt 0.250000 0.490000
vt 0.031250 0.500000
vt 0.031250 1.000000
vt 0.000000 0.500000
vt 0.000000 1.000000
vt 0.750000 0.490000
vt 0.703179 0.485389
vt 0.658156 0.471731
vt 0.616663 0.449553
vt 0.580295 0.419706
vt 0.550447 0.383337
vt 0.528269 0.341844
vt 0.514612 0.296822
vt 0.510000 0.250000
vt 0.514611 0.203179
vt 0.528269 0.158156
vt 0.550447 0.116663
vt 0.580294 0.080294
vt 0.616663 0.050447
vt 0.658156 0.028269
vt 0.703178 0.014612
vt 0.750000 0.010000
vt 0.796822 0.014612
vt 0.841844 0.028269
vt 0.883337 0.050447
vt 0.919706 0.080294
vt 0.949553 0.116663
vt 0.971731 0.158156
vt 0.985388 0.203178
vt 0.990000 0.250000
vt 0.985388 0.296822
vt 0.971731 0.341844
vt 0.949553 0.383337
vt 0.919706 0.419706
vt 0.883337 0.449553
vt 0.841844 0.471731
vt 0.796822 0.485388
vt 1.000000 0.500000
vt 1.000000 1.000000
vt 0.968750 1.000000
vt 0.968750 0.500000
vt 0.937500 1.000000
vt 0.937500 0.500000
vt 0.906250 1.000000
vt 0.906250 0.500000
vt 0.875000 1.000000
vt 0.875000 0.500000
vt 0.843750 1.000000
vt 0.843750 0.500000
vt 0.812500 1.000000
vt 0.812500 0.500000
vt 0.781250 1.000000
vt 0.781250 0.500000
vt 0.750000 1.000000
vt 0.750000 0.500000
vt 0.718750 1.000000
vt 0.718750 0.500000
vt 0.687500 1.000000
vt 0.687500 0.500000
vt 0.656250 1.000000
vt 0.656250 0.500000
vt 0.625000 1.000000
vt 0.625000 0.500000
vt 0.593750 1.000000
vt 0.593750 0.500000
vt 0.562500 1.000000
vt 0.562500 0.500000
vt 0.531250 1.000000
vt 0.531250 0.500000
vt 0.500000 1.000000
vt 0.500000 0.500000
vt 0.468750 1.000000
vt 0.468750 0.500000
vt 0.437500 1.000000
vt 0.437500 0.500000
vt 0.406250 1.000000
vt 0.406250 0.500000
vt 0.375000 1.000000
vt 0.375000 0.500000
vt 0.343750 1.000000
vt 0.343750 0.500000
vt 0.312500 1.000000
vt 0.312500 0.500000
vt 0.281250 1.000000
vt 0.281250 0.500000
vt 0.250000 1.000000
vt 0.250000 0.500000
vt 0.218750 1.000000
vt 0.218750 0.500000
vt 0.187500 1.000000
vt 0.187500 0.500000
vt 0.156250 1.000000
vt 0.156250 0.500000
vt 0.125000 1.000000
vt 0.125000 0.500000
vt 0.093750 1.000000
vt 0.093750 0.500000
vt 0.062500 1.000000
vt 0.062500 0.500000
vt 0.296822 0.485388
vt 0.250000 0.490000
vt 0.203179 0.485389
vt 0.158156 0.471731
vt 0.116663 0.449553
vt 0.080295 0.419706
vt 0.050447 0.383337
vt 0.028269 0.341844
vt 0.014612 0.296822
vt 0.010000 0.250000
vt 0.014611 0.203179
vt 0.028269 0.158156
vt 0.050447 0.116663
vt 0.080294 0.080294
vt 0.116663 0.050447
vt 0.158156 0.028269
vt 0.203178 0.014612
vt 0.250000 0.010000
vt 0.296822 0.014612
vt 0.341844 0.028269
vt 0.383337 0.050447
vt 0.419706 0.080294
vt 0.449553 0.116663
vt 0.471731 0.158156
vt 0.485388 0.203178
vt 0.490000 0.250000
vt 0.485388 0.296822
vt 0.471731 0.341844
vt 0.449553 0.383337
vt 0.419706 0.419706
vt 0.383337 0.449553
vt 0.341844 0.471731
vt 0.031250 1.000000
vt 0.031250 0.500000
vt 0.000000 1.000000
vt 0.000000 0.500000
vt 0.750000 0.490000
vt 0.796822 0.485388
vt 0.841844 0.471731
vt 0.883337 0.449553
vt 0.919706 0.419706
vt 0.949553 0.383337
vt 0.971731 0.341844
vt 0.985388 0.296822
vt 0.990000 0.250000
vt 0.985388 0.203178
vt 0.971731 0.158156
vt 0.949553 0.116663
vt 0.919706 0.080294
vt 0.883337 0.050447
vt 0.841844 0.028269
vt 0.796822 0.014612
vt 0.750000 0.010000
vt 0.703178 0.014612
vt 0.658156 0.028269
vt 0.616663 0.050447
vt 0.580294 0.080294
vt 0.550447 0.116663
vt 0.528269 0.158156
vt 0.514611 0.203179
vt 0.510000 0.250000
vt 0.514612 0.296822
vt 0.528269 0.341844
vt 0.550447 0.383337
vt 0.580295 0.419706
vt 0.616663 0.449553
vt 0.658156 0.471731
vt 0.703179 0.485389
vn 0.0000 0.6857 -0.7279
vn 0.1420 0.6857 -0.7139
vn 0.1420 -0.6857 -0.7139
vn 0.0000 -0.6857 -0.7279
vn 0.2785 0.6857 -0.6724
vn 0.2785 -0.6857 -0.6725
vn 0.4043 0.6857 -0.6052
vn 0.4044 -0.6856 -0.6052
vn 0.5146 0.6857 -0.5146
vn 0.5147 -0.6856 -0.5147
vn 0.6052 0.6858 -0.4043
vn 0.6052 -0.6856 -0.4044
vn 0.6724 0.6858 -0.2785
vn 0.6725 -0.6856 -0.2786
vn 0.7138 0.6858 -0.1420
vn 0.7140 -0.6856 -0.1420
vn 0.7278 0.6858 0.0000
vn 0.7280 -0.6856 0.0000
vn 0.7138 0.6858 0.1420
vn 0.7140 -0.6856 0.1420
vn 0.6724 0.6858 0.2785
vn 0.6725 -0.6856 0.2786
vn 0.6052 0.6858 0.4043
vn 0.6052 -0.6856 0.4044
vn 0.5146 0.6857 0.5146
vn 0.5147 -0.6856 0.5147
vn 0.4043 0.6857 0.6052
vn 0.4044 -0.6856 0.6052
vn 0.2785 0.6857 0.6724
vn 0.2785 -0.6857 0.6725
vn 0.1420 0.6857 0.7139
vn 0.1420 -0.6857 0.7139
vn 0.0000 0.6857 0.7279
vn 0.0000 -0.6857 0.7279
vn -0.1420 0.6857 0.7139
vn -0.1420 -0.6857 0.7139
vn -0.2785 0.6857 0.6725
vn -0.2785 -0.6857 0.6724
vn -0.4044 0.6856 0.6052
vn -0.4043 -0.6857 0.6052
vn -0.5147 0.6856 0.5147
vn -0.5146 -0.6857 0.5146
vn -0.6052 0.6856 0.4044
vn -0.6052 -0.6858 0.4043
vn -0.6725 0.6856 0.2786
vn -0.6724 -0.6858 0.2785
vn -0.7140 0.6856 0.1420
vn -0.7138 -0.6858 0.1420
vn -0.7279 0.6856 0.0000
vn -0.7278 -0.6858 0.0000
vn -0.7140 0.6856 -0.1420
vn -0.7138 -0.6858 -0.1420
vn -0.6725 0.6856 -0.2786
vn -0.6724 -0.6858 -0.2785
vn -0.6052 0.6856 -0.4044
vn -0.6052 -0.6858 -0.4043
vn -0.5147 0.6856 -0.5147
vn -0.5146 -0.6857 -0.5146
vn -0.4044 0.6856 -0.6052
vn -0.4043 -0.6857 -0.6052
vn -0.2785 0.6857 -0.6725
vn -0.2785 -0.6857 -0.6724
vn -0.1420 -0.6857 -0.7139
vn -0.1420 0.6857 -0.7139
vn -0.2785 -0.6857 -0.6725
vn -0.2785 0.6857 -0.6724
vn -0.4044 -0.6856 -0.6052
vn -0.4043 0.6857 -0.6052
vn -0.5147 -0.6856 -0.5147
vn -0.5146 0.6857 -0.5146
vn -0.6052 -0.6856 -0.4044
vn -0.6052 0.6858 -0.4043
vn -0.6725 -0.6856 -0.2786
vn -0.6724 0.6858 -0.2785
vn -0.7140 -0.6856 -0.1420
vn -0.7138 0.6858 -0.1420
vn -0.7280 -0.6856 0.0000
vn -0.7278 0.6858 0.0000
vn -0.7140 -0.6856 0.1420
vn -0.7138 0.6858 0.1420
vn -0.6725 -0.6856 0.2786
vn -0.6724 0.6858 0.2785
vn -0.6052 -0.6856 0.4044
vn -0.6052 0.6858 0.4043
vn -0.5147 -0.6856 0.5147
vn -0.5146 0.6857 0.5146
vn -0.4044 -0.6856 0.6052
vn -0.4043 0.6857 0.6052
vn -0.2785 -0.6857 0.6725
vn -0.2785 0.6857 0.6724
vn 0.2785 -0.6857 0.6724
vn 0.2785 0.6857 0.6725
vn 0.4043 -0.6857 0.6052
vn 0.4044 0.6856 0.6052
vn 0.5146 -0.6857 0.5146
vn 0.5147 0.6856 0.5147
vn 0.6052 -0.6858 0.4043
vn 0.6052 0.6856 0.4044
vn 0.6724 -0.6858 0.2785
vn 0.6725 0.6856 0.2786
vn 0.7138 -0.6858 0.1420
vn 0.7140 0.6856 0.1420
vn 0.7278 -0.6858 0.0000
vn 0.7279 0.6856 0.0000
vn 0.7138 -0.6858 -0.1420
vn 0.7140 0.6856 -0.1420
vn 0.6724 -0.6858 -0.2785
vn 0.6725 0.6856 -0.2786
vn 0.6052 -0.6858 -0.4043
vn 0.6052 0.6856 -0.4044
vn 0.5146 -0.6857 -0.5146
vn 0.5147 0.6856 -0.5147
vn 0.4043 -0.6857 -0.6052
vn 0.4044 0.6856 -0.6052
vn 0.2785 -0.6857 -0.6724
vn 0.2785 0.6857 -0.6725
usemtl steel
s 1
f 1/1/1 3/2/2 4/3/3 2/4/4
f 3/2/2 5/5/5 6/6/6 4/3/3
f 5/5/5 7/7/7 8/8/8 6/6/6
f 7/7/7 9/9/9 10/10/10 8/8/8
f 9/9/9 11/11/11 12/12/12 10/10/10
f 11/11/11 13/13/13 14/14/14 12/12/12
f 13/13/13 15/15/15 16/16/16 14/14/14
f 15/15/15 17/17/17 18/18/18 16/16/16
f 17/17/17 19/19/19 20/20/20 18/18/18
f 19/19/19 21/21/21 22/22/22 20/20/20
f 21/21/21 23/23/23 24/24/24 22/22/22
f 23/23/23 25/25/25 26/26/26 24/24/24
f 25/25/25 27/27/27 28/28/28 26/26/26
f 27/27/27 29/29/29 30/30/30 28/28/28
f 29/29/29 31/31/31 32/32/32 30/30/30
f 31/31/31 33/33/33 34/34/34 32/32/32
f 33/33/33 35/35/35 36/36/36 34/34/34
f 35/35/35 37/37/37 38/38/38 36/36/36
f 37/37/37 39/39/39 40/40/40 38/38/38
f 39/39/39 41/41/41 42/42/42 40/40/40
f 41/41/41 43/43/43 44/44/44 42/42/42
f 43/43/43 45/45/45 46/46/46 44/44/44
f 45/45/45 47/47/47 48/48/48 46/46/46
f 47/47/47 49/49/49 50/50/50 48/48/48
f 49/49/49 51/51/51 52/52/52 50/50/50
f 51/51/51 53/53/53 54/54/54 52/52/52
f 53/53/53 55/55/55 56/56/56 54/54/54
f 55/55/55 57/57/57 58/58/58 56/56/56
f 57/57/57 59/59/59 60/60/60 58/58/58
f 59/59/59 61/61/61 62/62/62 60/60/60
f 4/63/3 6/64/6 8/65/8 10/66/10 12/67/12 14/68/14 16/69/16 18/70/18 20/71/20 22/72/22 24/73/24 26/74/26 28/75/28 30/76/30 32/77/32 34/78/34 36/79/36 38/80/38 40/81/40 42/82/42 44/83/44 46/84/46 48/85/48 50/86/50 52/87/52 54/88/54 56/89/56 58/90/58 60/91/60 62/92/62 64/93/63 2/94/4
f 61/61/61 63/95/64 64/96/63 62/62/62
f 63/95/64 1/97/1 2/98/4 64/96/63
f 1/99/1 63/100/64 61/101/61 59/102/59 57/103/57 55/104/55 53/105/53 51/106/51 49/107/49 47/108/47 45/109/45 43/110/43 41/111/41 39/112/39 37/113/37 35/114/35 33/115/33 31/116/31 29/117/29 27/118/27 25/119/25 23/120/23 21/121/21 19/122/19 17/123/17 15/124/15 13/125/13 11/126/11 9/127/9 7/128/7 5/129/5 3/130/2
f 65/131/1 66/132/4 68/133/63 67/134/64
f 67/134/64 68/133/63 70/135/65 69/136/66
f 69/136/66 70/135/65 72/137/67 71/138/68
f 71/138/68 72/137/67 74/139/69 73/140/70
f 73/140/70 74/139/69 76/141/71 75/142/72
f 75/142/72 76/141/71 78/143/73 77/144/74
f 77/144/74 78/143/73 80/145/75 79/146/76
f 79/146/76 80/145/75 82/147/77 81/148/78
f 81/148/78 82/147/77 84/149/79 83/150/80
f 83/150/80 84/149/79 86/151/81 85/152/82
f 85/152/82 86/151/81 88/153/83 87/154/84
f 87/154/84 88/153/83 90/155/85 89/156/86
f 89/156/86 90/155/85 92/157/87 91/158/88
f 91/158/88 92/157/87 94/159/89 93/160/90
f 93/160/90 94/159/89 96/161/36 95/162/35
f 95/162/35 96/161/36 98/163/34 97/164/33
f 97/164/33 98/163/34 100/165/32 99/166/31
f 99/166/31 100/165/32 102/167/91 101/168/92
f 101/168/92 102/167/91 104/169/93 103/170/94
f 103/170/94 104/169/93 106/171/95 105/172/96
f 105/172/96 106/171/95 108/173/97 107/174/98
f 107/174/98 108/173/97 110/175/99 109/176/100
f 109/176/100 110/175/99 112/177/101 111/178/102
f 111/178/102 112/177/101 114/179/103 113/180/104
f 113/180/104 114/179/103 116/181/105 115/182/106
f 115/182/106 116/181/105 118/183/107 117/184/108
f 117/184/108 118/183/107 120/185/109 119/186/110
f 119/186/110 120/185/109 122/187/111 121/188/112
f 121/188/112 122/187/111 124/189/113 123/190/114
f 123/190/114 124/189/113 126/191/115 125/192/116
f 68/193/63 66/194/4 128/195/3 126/196/115 124/197/113 122/198/111 120/199/109 118/200/107 116/201/105 114/202/103 112/203/101 110/204/99 108/205/97 106/206/95 104/207/93 102/208/91 100/209/32 98/210/34 96/211/36 94/212/89 92/213/87 90/214/85 88/215/83 86/216/81 84/217/79 82/218/77 80/219/75 78/220/73 76/221/71 74/222/69 72/223/67 70/224/65
f 125/192/116 126/191/115 128/225/3 127/226/2
f 127/226/2 128/225/3 66/227/4 65/228/1
f 65/229/1 67/230/64 69/231/66 71/232/68 73/233/70 75/234/72 77/235/74 79/236/76 81/237/78 83/238/80 85/239/82 87/240/84 89/241/86 91/242/88 93/243/90 95/244/35 97/245/33 99/246/31 101/247/92 103/248/94 105/249/96 107/250/98 109/251/100 111/252/102 113/253/104 115/254/106 117/255/108 119/256/110 121/257/112 123/258/114 125/259/116 127/260/2
